<?xml version="1.0" encoding="UTF-8" standalone="no"?>
<!DOCTYPE svg PUBLIC "-//W3C//DTD SVG 1.1//EN"
 "http://www.w3.org/Graphics/SVG/1.1/DTD/svg11.dtd">
<!-- Generated by graphviz version 2.44.0 (0)
 -->
<!-- Title: G Pages: 1 -->
<svg width="397pt" height="226pt"
 viewBox="0.00 0.00 397.17 226.48" xmlns="http://www.w3.org/2000/svg" xmlns:xlink="http://www.w3.org/1999/xlink">
<g id="graph0" class="graph" transform="scale(1 1) rotate(0) translate(4 222.48)">
<title>G</title>
<polygon fill="white" stroke="transparent" points="-4,4 -4,-222.48 393.17,-222.48 393.17,4 -4,4"/>
<!-- 0 -->
<g id="node1" class="node">
<title>0</title>
<ellipse fill="none" stroke="black" cx="288.3" cy="-91.49" rx="18" ry="18"/>
<text text-anchor="middle" x="288.3" y="-87.79" font-family="Times-Roman" font-size="14.00">0</text>
</g>
<!-- 1 -->
<g id="node2" class="node">
<title>1</title>
<ellipse fill="none" stroke="black" cx="303.91" cy="-159.69" rx="18" ry="18"/>
<text text-anchor="middle" x="303.91" y="-155.99" font-family="Times-Roman" font-size="14.00">1</text>
</g>
<!-- 0&#45;&#45;1 -->
<g id="edge1" class="edge">
<title>0&#45;&#45;1</title>
<path fill="none" stroke="black" d="M292.32,-109.06C294.63,-119.16 297.53,-131.82 299.85,-141.95"/>
</g>
<!-- 2 -->
<g id="node3" class="node">
<title>2</title>
<ellipse fill="none" stroke="black" cx="230.28" cy="-140.81" rx="18" ry="18"/>
<text text-anchor="middle" x="230.28" y="-137.11" font-family="Times-Roman" font-size="14.00">2</text>
</g>
<!-- 0&#45;&#45;2 -->
<g id="edge2" class="edge">
<title>0&#45;&#45;2</title>
<path fill="none" stroke="black" d="M274.55,-103.18C265.44,-110.93 253.51,-121.06 244.34,-128.86"/>
</g>
<!-- 1&#45;&#45;2 -->
<g id="edge3" class="edge">
<title>1&#45;&#45;2</title>
<path fill="none" stroke="black" d="M286.46,-155.21C274.81,-152.23 259.54,-148.31 247.86,-145.31"/>
</g>
<!-- 9 -->
<g id="node10" class="node">
<title>9</title>
<ellipse fill="none" stroke="black" cx="371.17" cy="-192.15" rx="18" ry="18"/>
<text text-anchor="middle" x="371.17" y="-188.45" font-family="Times-Roman" font-size="14.00">9</text>
</g>
<!-- 1&#45;&#45;9 -->
<g id="edge13" class="edge">
<title>1&#45;&#45;9</title>
<path fill="none" stroke="black" d="M320.19,-167.55C330.61,-172.58 344.09,-179.08 354.57,-184.14"/>
</g>
<!-- 4 -->
<g id="node4" class="node">
<title>4</title>
<ellipse fill="none" stroke="black" cx="153.23" cy="-134.63" rx="18" ry="18"/>
<text text-anchor="middle" x="153.23" y="-130.93" font-family="Times-Roman" font-size="14.00">4</text>
</g>
<!-- 2&#45;&#45;4 -->
<g id="edge4" class="edge">
<title>2&#45;&#45;4</title>
<path fill="none" stroke="black" d="M212.03,-139.34C199.74,-138.36 183.62,-137.07 171.36,-136.08"/>
</g>
<!-- 3 -->
<g id="node5" class="node">
<title>3</title>
<ellipse fill="none" stroke="black" cx="187" cy="-200.48" rx="18" ry="18"/>
<text text-anchor="middle" x="187" y="-196.78" font-family="Times-Roman" font-size="14.00">3</text>
</g>
<!-- 2&#45;&#45;3 -->
<g id="edge5" class="edge">
<title>2&#45;&#45;3</title>
<path fill="none" stroke="black" d="M219.59,-155.56C212.88,-164.81 204.26,-176.68 197.58,-185.9"/>
</g>
<!-- 4&#45;&#45;3 -->
<g id="edge6" class="edge">
<title>4&#45;&#45;3</title>
<path fill="none" stroke="black" d="M161.58,-150.91C166.82,-161.12 173.54,-174.22 178.75,-184.39"/>
</g>
<!-- 5 -->
<g id="node6" class="node">
<title>5</title>
<ellipse fill="none" stroke="black" cx="83.87" cy="-162.83" rx="18" ry="18"/>
<text text-anchor="middle" x="83.87" y="-159.13" font-family="Times-Roman" font-size="14.00">5</text>
</g>
<!-- 4&#45;&#45;5 -->
<g id="edge7" class="edge">
<title>4&#45;&#45;5</title>
<path fill="none" stroke="black" d="M136.44,-141.46C125.7,-145.82 111.8,-151.48 100.99,-155.87"/>
</g>
<!-- 6 -->
<g id="node7" class="node">
<title>6</title>
<ellipse fill="none" stroke="black" cx="90.26" cy="-90.17" rx="18" ry="18"/>
<text text-anchor="middle" x="90.26" y="-86.47" font-family="Times-Roman" font-size="14.00">6</text>
</g>
<!-- 4&#45;&#45;6 -->
<g id="edge9" class="edge">
<title>4&#45;&#45;6</title>
<path fill="none" stroke="black" d="M138.31,-124.09C128.27,-117.01 115.09,-107.7 105.07,-100.63"/>
</g>
<!-- 5&#45;&#45;6 -->
<g id="edge8" class="edge">
<title>5&#45;&#45;6</title>
<path fill="none" stroke="black" d="M85.45,-144.87C86.43,-133.69 87.69,-119.36 88.67,-108.18"/>
</g>
<!-- 8 -->
<g id="node8" class="node">
<title>8</title>
<ellipse fill="none" stroke="black" cx="65.5" cy="-18" rx="18" ry="18"/>
<text text-anchor="middle" x="65.5" y="-14.3" font-family="Times-Roman" font-size="14.00">8</text>
</g>
<!-- 6&#45;&#45;8 -->
<g id="edge10" class="edge">
<title>6&#45;&#45;8</title>
<path fill="none" stroke="black" d="M84.39,-73.07C80.5,-61.73 75.41,-46.9 71.5,-35.48"/>
</g>
<!-- 7 -->
<g id="node9" class="node">
<title>7</title>
<ellipse fill="none" stroke="black" cx="18" cy="-66.43" rx="18" ry="18"/>
<text text-anchor="middle" x="18" y="-62.73" font-family="Times-Roman" font-size="14.00">7</text>
</g>
<!-- 6&#45;&#45;7 -->
<g id="edge11" class="edge">
<title>6&#45;&#45;7</title>
<path fill="none" stroke="black" d="M73.13,-84.54C61.78,-80.81 46.93,-75.94 35.5,-72.18"/>
</g>
<!-- 8&#45;&#45;7 -->
<g id="edge12" class="edge">
<title>8&#45;&#45;7</title>
<path fill="none" stroke="black" d="M52.77,-30.98C45.96,-37.93 37.59,-46.46 30.77,-53.42"/>
</g>
</g>
</svg>
