<?xml version="1.0" encoding="UTF-8" standalone="no"?>
<!DOCTYPE svg PUBLIC "-//W3C//DTD SVG 1.1//EN"
 "http://www.w3.org/Graphics/SVG/1.1/DTD/svg11.dtd">
<!-- Generated by graphviz version 2.44.0 (0)
 -->
<!-- Title: G Pages: 1 -->
<svg width="241pt" height="253pt"
 viewBox="0.00 0.00 241.01 252.64" xmlns="http://www.w3.org/2000/svg" xmlns:xlink="http://www.w3.org/1999/xlink">
<g id="graph0" class="graph" transform="scale(1 1) rotate(0) translate(4 248.64)">
<title>G</title>
<polygon fill="white" stroke="transparent" points="-4,4 -4,-248.64 237.01,-248.64 237.01,4 -4,4"/>
<!-- 0 -->
<g id="node1" class="node">
<title>0</title>
<ellipse fill="#fdae61" stroke="black" cx="104.04" cy="-226.64" rx="18" ry="18"/>
<text text-anchor="middle" x="104.04" y="-222.94" font-family="Times-Roman" font-size="14.00">0</text>
</g>
<!-- 1 -->
<g id="node2" class="node">
<title>1</title>
<ellipse fill="#fdae61" stroke="black" cx="140" cy="-154.99" rx="18" ry="18"/>
<text text-anchor="middle" x="140" y="-151.29" font-family="Times-Roman" font-size="14.00">1</text>
</g>
<!-- 0&#45;&#45;1 -->
<g id="edge1" class="edge">
<title>0&#45;&#45;1</title>
<path fill="none" stroke="#d73027" stroke-width="5" d="M112.2,-210.38C118.08,-198.65 125.99,-182.9 131.87,-171.19"/>
</g>
<!-- 3 -->
<g id="node4" class="node">
<title>3</title>
<ellipse fill="none" stroke="black" cx="75.16" cy="-160.21" rx="18" ry="18"/>
<text text-anchor="middle" x="75.16" y="-156.51" font-family="Times-Roman" font-size="14.00">3</text>
</g>
<!-- 0&#45;&#45;3 -->
<g id="edge2" class="edge">
<title>0&#45;&#45;3</title>
<path fill="none" stroke="black" d="M96.75,-209.87C92.34,-199.73 86.74,-186.84 82.35,-176.74"/>
</g>
<!-- 2 -->
<g id="node3" class="node">
<title>2</title>
<ellipse fill="#fdae61" stroke="black" cx="97.36" cy="-85.27" rx="18" ry="18"/>
<text text-anchor="middle" x="97.36" y="-81.57" font-family="Times-Roman" font-size="14.00">2</text>
</g>
<!-- 1&#45;&#45;2 -->
<g id="edge6" class="edge">
<title>1&#45;&#45;2</title>
<path fill="none" stroke="#d73027" stroke-width="5" d="M130.54,-139.52C123.47,-127.97 113.85,-112.25 106.79,-100.7"/>
</g>
<!-- 1&#45;&#45;3 -->
<g id="edge3" class="edge">
<title>1&#45;&#45;3</title>
<path fill="none" stroke="black" d="M121.94,-156.45C112.95,-157.17 102.11,-158.04 93.13,-158.77"/>
</g>
<!-- 7 -->
<g id="node8" class="node">
<title>7</title>
<ellipse fill="none" stroke="black" cx="215.01" cy="-176.59" rx="18" ry="18"/>
<text text-anchor="middle" x="215.01" y="-172.89" font-family="Times-Roman" font-size="14.00">7</text>
</g>
<!-- 1&#45;&#45;7 -->
<g id="edge4" class="edge">
<title>1&#45;&#45;7</title>
<path fill="none" stroke="black" d="M157.4,-160C169.51,-163.49 185.61,-168.13 197.71,-171.61"/>
</g>
<!-- 4 -->
<g id="node5" class="node">
<title>4</title>
<ellipse fill="none" stroke="black" cx="157.9" cy="-28.66" rx="18" ry="18"/>
<text text-anchor="middle" x="157.9" y="-24.96" font-family="Times-Roman" font-size="14.00">4</text>
</g>
<!-- 2&#45;&#45;4 -->
<g id="edge7" class="edge">
<title>2&#45;&#45;4</title>
<path fill="none" stroke="black" d="M110.79,-72.71C120.83,-63.33 134.48,-50.56 144.5,-41.19"/>
</g>
<!-- 5 -->
<g id="node6" class="node">
<title>5</title>
<ellipse fill="none" stroke="black" cx="18" cy="-65.92" rx="18" ry="18"/>
<text text-anchor="middle" x="18" y="-62.22" font-family="Times-Roman" font-size="14.00">5</text>
</g>
<!-- 2&#45;&#45;5 -->
<g id="edge8" class="edge">
<title>2&#45;&#45;5</title>
<path fill="none" stroke="black" d="M79.75,-80.98C66.59,-77.77 48.7,-73.41 35.56,-70.2"/>
</g>
<!-- 6 -->
<g id="node7" class="node">
<title>6</title>
<ellipse fill="#d73027" stroke="black" cx="58.95" cy="-18" rx="18" ry="18"/>
<text text-anchor="middle" x="58.95" y="-14.3" font-family="Times-Roman" font-size="14.00">6</text>
</g>
<!-- 2&#45;&#45;6 -->
<g id="edge10" class="edge">
<title>2&#45;&#45;6</title>
<path fill="none" stroke="#d73027" stroke-width="5" d="M88.26,-69.33C82.13,-58.61 74.09,-44.53 67.99,-33.83"/>
</g>
<!-- 3&#45;&#45;2 -->
<g id="edge5" class="edge">
<title>3&#45;&#45;2</title>
<path fill="none" stroke="black" d="M80.31,-142.83C83.9,-130.73 88.66,-114.65 92.24,-102.56"/>
</g>
<!-- 5&#45;&#45;6 -->
<g id="edge9" class="edge">
<title>5&#45;&#45;6</title>
<path fill="none" stroke="black" d="M29.84,-52.06C35.23,-45.76 41.59,-38.31 46.99,-32"/>
</g>
</g>
</svg>
