<?xml version="1.0" encoding="UTF-8" standalone="no"?>
<!DOCTYPE svg PUBLIC "-//W3C//DTD SVG 1.1//EN"
 "http://www.w3.org/Graphics/SVG/1.1/DTD/svg11.dtd">
<!-- Generated by graphviz version 2.44.0 (0)
 -->
<!-- Title: G Pages: 1 -->
<svg width="247pt" height="231pt"
 viewBox="0.00 0.00 247.21 231.00" xmlns="http://www.w3.org/2000/svg" xmlns:xlink="http://www.w3.org/1999/xlink">
<g id="graph0" class="graph" transform="scale(1 1) rotate(0) translate(4 227)">
<title>G</title>
<polygon fill="white" stroke="transparent" points="-4,4 -4,-227 243.21,-227 243.21,4 -4,4"/>
<!-- 0 -->
<g id="node1" class="node">
<title>0</title>
<ellipse fill="#fc8d62" stroke="black" cx="18" cy="-77.22" rx="18" ry="18"/>
<text text-anchor="middle" x="18" y="-73.52" font-family="Times-Roman" font-size="14.00">0</text>
</g>
<!-- 2 -->
<g id="node2" class="node">
<title>2</title>
<ellipse fill="#fc8d62" stroke="black" cx="87.39" cy="-87.59" rx="18" ry="18"/>
<text text-anchor="middle" x="87.39" y="-83.89" font-family="Times-Roman" font-size="14.00">2</text>
</g>
<!-- 0&#45;&#45;2 -->
<g id="edge2" class="edge">
<title>0&#45;&#45;2</title>
<path fill="none" stroke="black" d="M35.87,-79.89C46.15,-81.42 59.03,-83.35 69.34,-84.89"/>
</g>
<!-- 4 -->
<g id="node3" class="node">
<title>4</title>
<ellipse fill="#fc8d62" stroke="black" cx="62.2" cy="-18" rx="18" ry="18"/>
<text text-anchor="middle" x="62.2" y="-14.3" font-family="Times-Roman" font-size="14.00">4</text>
</g>
<!-- 0&#45;&#45;4 -->
<g id="edge5" class="edge">
<title>0&#45;&#45;4</title>
<path fill="none" stroke="black" d="M28.93,-62.58C35.78,-53.4 44.57,-41.62 51.4,-32.47"/>
</g>
<!-- 1 -->
<g id="node4" class="node">
<title>1</title>
<ellipse fill="#fc8d62" stroke="black" cx="42.95" cy="-146.77" rx="18" ry="18"/>
<text text-anchor="middle" x="42.95" y="-143.07" font-family="Times-Roman" font-size="14.00">1</text>
</g>
<!-- 0&#45;&#45;1 -->
<g id="edge1" class="edge">
<title>0&#45;&#45;1</title>
<path fill="none" stroke="black" d="M24.17,-94.41C28.03,-105.19 33,-119.03 36.85,-129.78"/>
</g>
<!-- 2&#45;&#45;4 -->
<g id="edge4" class="edge">
<title>2&#45;&#45;4</title>
<path fill="none" stroke="black" d="M81.16,-70.39C77.26,-59.6 72.24,-45.75 68.35,-35"/>
</g>
<!-- 1&#45;&#45;2 -->
<g id="edge3" class="edge">
<title>1&#45;&#45;2</title>
<path fill="none" stroke="black" d="M53.93,-132.14C60.82,-122.97 69.67,-111.19 76.53,-102.05"/>
</g>
<!-- 5 -->
<g id="node5" class="node">
<title>5</title>
<ellipse fill="#8da0cb" stroke="black" cx="117" cy="-149.64" rx="18" ry="18"/>
<text text-anchor="middle" x="117" y="-145.94" font-family="Times-Roman" font-size="14.00">5</text>
</g>
<!-- 7 -->
<g id="node6" class="node">
<title>7</title>
<ellipse fill="#8da0cb" stroke="black" cx="188.21" cy="-139" rx="18" ry="18"/>
<text text-anchor="middle" x="188.21" y="-135.3" font-family="Times-Roman" font-size="14.00">7</text>
</g>
<!-- 5&#45;&#45;7 -->
<g id="edge6" class="edge">
<title>5&#45;&#45;7</title>
<path fill="none" stroke="black" d="M134.97,-146.95C145.68,-145.35 159.24,-143.33 170,-141.72"/>
</g>
<!-- 6 -->
<g id="node7" class="node">
<title>6</title>
<ellipse fill="#66c2a5" stroke="black" cx="150" cy="-50.64" rx="18" ry="18"/>
<text text-anchor="middle" x="150" y="-46.94" font-family="Times-Roman" font-size="14.00">6</text>
</g>
<!-- 8 -->
<g id="node8" class="node">
<title>8</title>
<ellipse fill="#66c2a5" stroke="black" cx="221.21" cy="-40" rx="18" ry="18"/>
<text text-anchor="middle" x="221.21" y="-36.3" font-family="Times-Roman" font-size="14.00">8</text>
</g>
<!-- 6&#45;&#45;8 -->
<g id="edge7" class="edge">
<title>6&#45;&#45;8</title>
<path fill="none" stroke="black" d="M167.97,-47.95C178.68,-46.35 192.24,-44.33 203,-42.72"/>
</g>
<!-- 3 -->
<g id="node9" class="node">
<title>3</title>
<ellipse fill="#e78ac3" stroke="black" cx="183" cy="-205" rx="18" ry="18"/>
<text text-anchor="middle" x="183" y="-201.3" font-family="Times-Roman" font-size="14.00">3</text>
</g>
</g>
</svg>
