<?xml version="1.0" encoding="UTF-8" standalone="no"?>
<!-- Creator: fig2dev Version 3.2.8b -->
<!-- CreationDate: 2022-03-30 15:07:42 -->
<!-- Magnification: 1.05 -->
<svg	xmlns="http://www.w3.org/2000/svg"
	xmlns:xlink="http://www.w3.org/1999/xlink"
	width="596pt" height="247pt"
	viewBox="2644 1587 9449 3918">
<g fill="none">
<!-- Line -->
<polyline points=" 3150,3600 4500,4950 5850,3600 3150,3600 4500,2250 5850,3600 7200,2250 5850,3600
 7200,4950"
	stroke="#000000" stroke-width="30px"/>
<!-- Text -->
<text xml:space="preserve" x="4500" y="1980" fill="#000000" font-family="Times" font-style="normal" font-weight="bold" font-size="360" text-anchor="middle">1</text>
<!-- Text -->
<text xml:space="preserve" x="2790" y="3780" fill="#000000" font-family="Times" font-style="normal" font-weight="bold" font-size="360" text-anchor="middle">0</text>
<!-- Text -->
<text xml:space="preserve" x="5850" y="3330" fill="#000000" font-family="Times" font-style="normal" font-weight="bold" font-size="360" text-anchor="middle">2</text>
<!-- Text -->
<text xml:space="preserve" x="4500" y="5490" fill="#000000" font-family="Times" font-style="normal" font-weight="bold" font-size="360" text-anchor="middle">3</text>
<!-- Text -->
<text xml:space="preserve" x="7200" y="1980" fill="#000000" font-family="Times" font-style="normal" font-weight="bold" font-size="360" text-anchor="middle">4</text>
<!-- Text -->
<text xml:space="preserve" x="7200" y="5490" fill="#000000" font-family="Times" font-style="normal" font-weight="bold" font-size="360" text-anchor="middle">5</text>
<!-- Text -->
<text xml:space="preserve" x="8910" y="2025" fill="#000000" font-family="Times" font-style="normal" font-weight="bold" font-size="360" text-anchor="middle">0</text>
<!-- Text -->
<text xml:space="preserve" x="8910" y="2700" fill="#000000" font-family="Times" font-style="normal" font-weight="bold" font-size="360" text-anchor="middle">1</text>
<!-- Text -->
<text xml:space="preserve" x="8910" y="3375" fill="#000000" font-family="Times" font-style="normal" font-weight="bold" font-size="360" text-anchor="middle">2</text>
<!-- Text -->
<text xml:space="preserve" x="8910" y="4050" fill="#000000" font-family="Times" font-style="normal" font-weight="bold" font-size="360" text-anchor="middle">3</text>
<!-- Text -->
<text xml:space="preserve" x="8910" y="4725" fill="#000000" font-family="Times" font-style="normal" font-weight="bold" font-size="360" text-anchor="middle">4</text>
<!-- Text -->
<text xml:space="preserve" x="8910" y="5400" fill="#000000" font-family="Times" font-style="normal" font-weight="bold" font-size="360" text-anchor="middle">5</text>
<!-- Text -->
<text xml:space="preserve" x="10485" y="2025" fill="#000000" font-family="Times" font-style="normal" font-weight="bold" font-size="360" text-anchor="middle">1</text>
<!-- Text -->
<text xml:space="preserve" x="11385" y="3375" fill="#000000" font-family="Times" font-style="normal" font-weight="bold" font-size="360" text-anchor="middle">5</text>
<!-- Text -->
<text xml:space="preserve" x="10035" y="3375" fill="#000000" font-family="Times" font-style="normal" font-weight="bold" font-size="360" text-anchor="middle">1</text>
<!-- Text -->
<text xml:space="preserve" x="10035" y="2025" fill="#000000" font-family="Times" font-style="normal" font-weight="bold" font-size="360" text-anchor="middle">3</text>
<!-- Text -->
<text xml:space="preserve" x="10935" y="2025" fill="#000000" font-family="Times" font-style="normal" font-weight="bold" font-size="360" text-anchor="middle">2</text>
<!-- Text -->
<text xml:space="preserve" x="10035" y="2700" fill="#000000" font-family="Times" font-style="normal" font-weight="bold" font-size="360" text-anchor="middle">0</text>
<!-- Text -->
<text xml:space="preserve" x="10485" y="2700" fill="#000000" font-family="Times" font-style="normal" font-weight="bold" font-size="360" text-anchor="middle">2</text>
<!-- Text -->
<text xml:space="preserve" x="10485" y="3375" fill="#000000" font-family="Times" font-style="normal" font-weight="bold" font-size="360" text-anchor="middle">0</text>
<!-- Text -->
<text xml:space="preserve" x="10935" y="3375" fill="#000000" font-family="Times" font-style="normal" font-weight="bold" font-size="360" text-anchor="middle">3</text>
<!-- Text -->
<text xml:space="preserve" x="10035" y="4050" fill="#000000" font-family="Times" font-style="normal" font-weight="bold" font-size="360" text-anchor="middle">0</text>
<!-- Text -->
<text xml:space="preserve" x="10485" y="4050" fill="#000000" font-family="Times" font-style="normal" font-weight="bold" font-size="360" text-anchor="middle">2</text>
<!-- Text -->
<text xml:space="preserve" x="10035" y="4725" fill="#000000" font-family="Times" font-style="normal" font-weight="bold" font-size="360" text-anchor="middle">2</text>
<!-- Text -->
<text xml:space="preserve" x="10035" y="5400" fill="#000000" font-family="Times" font-style="normal" font-weight="bold" font-size="360" text-anchor="middle">2</text>
<!-- Text -->
<text xml:space="preserve" x="11835" y="3375" fill="#000000" font-family="Times" font-style="normal" font-weight="bold" font-size="360" text-anchor="middle">4</text>
<!-- Circle -->
<circle cx="3150" cy="3600" r="90" fill="#000000"
	stroke="#000000" stroke-width="30px"/>
<!-- Circle -->
<circle cx="4500" cy="2250" r="90" fill="#000000"
	stroke="#000000" stroke-width="30px"/>
<!-- Circle -->
<circle cx="4500" cy="4950" r="90" fill="#000000"
	stroke="#000000" stroke-width="30px"/>
<!-- Circle -->
<circle cx="5850" cy="3600" r="90" fill="#000000"
	stroke="#000000" stroke-width="30px"/>
<!-- Circle -->
<circle cx="7200" cy="2250" r="90" fill="#000000"
	stroke="#000000" stroke-width="30px"/>
<!-- Circle -->
<circle cx="7200" cy="4950" r="90" fill="#000000"
	stroke="#000000" stroke-width="30px"/>
<!-- Line -->
<defs>
<clipPath id="cp0">
	<path clip-rule="evenodd" d="M 2644,1587 H 12093 V 5505 H 2644 z
		M 9385,1755 9385,1935 9843,1878 9843,1812z"/>
</clipPath>
</defs>
<polyline points=" 9135,1845 9810,1845" clip-path="url(#cp0)"
	stroke="#000000" stroke-width="60px"/>
<!-- Forward arrow to point 9810,1845 -->
<polygon points=" 9385,1935 9745,1845 9385,1755 9385,1935"
	stroke="#000000" stroke-width="30px" stroke-miterlimit="8" fill="#000000"/>
<!-- Line -->
<defs>
<clipPath id="cp1">
	<path clip-rule="evenodd" d="M 2644,1587 H 12093 V 5505 H 2644 z
		M 9385,2430 9385,2610 9843,2553 9843,2487z"/>
</clipPath>
</defs>
<polyline points=" 9135,2520 9810,2520" clip-path="url(#cp1)"
	stroke="#000000" stroke-width="60px"/>
<!-- Forward arrow to point 9810,2520 -->
<polygon points=" 9385,2610 9745,2520 9385,2430 9385,2610"
	stroke="#000000" stroke-width="30px" stroke-miterlimit="8" fill="#000000"/>
<!-- Line -->
<defs>
<clipPath id="cp2">
	<path clip-rule="evenodd" d="M 2644,1587 H 12093 V 5505 H 2644 z
		M 9385,3105 9385,3285 9843,3228 9843,3162z"/>
</clipPath>
</defs>
<polyline points=" 9135,3195 9810,3195" clip-path="url(#cp2)"
	stroke="#000000" stroke-width="60px"/>
<!-- Forward arrow to point 9810,3195 -->
<polygon points=" 9385,3285 9745,3195 9385,3105 9385,3285"
	stroke="#000000" stroke-width="30px" stroke-miterlimit="8" fill="#000000"/>
<!-- Line -->
<defs>
<clipPath id="cp3">
	<path clip-rule="evenodd" d="M 2644,1587 H 12093 V 5505 H 2644 z
		M 9385,3780 9385,3960 9843,3903 9843,3837z"/>
</clipPath>
</defs>
<polyline points=" 9135,3870 9810,3870" clip-path="url(#cp3)"
	stroke="#000000" stroke-width="60px"/>
<!-- Forward arrow to point 9810,3870 -->
<polygon points=" 9385,3960 9745,3870 9385,3780 9385,3960"
	stroke="#000000" stroke-width="30px" stroke-miterlimit="8" fill="#000000"/>
<!-- Line -->
<defs>
<clipPath id="cp4">
	<path clip-rule="evenodd" d="M 2644,1587 H 12093 V 5505 H 2644 z
		M 9385,4500 9385,4680 9843,4623 9843,4557z"/>
</clipPath>
</defs>
<polyline points=" 9135,4590 9810,4590" clip-path="url(#cp4)"
	stroke="#000000" stroke-width="60px"/>
<!-- Forward arrow to point 9810,4590 -->
<polygon points=" 9385,4680 9745,4590 9385,4500 9385,4680"
	stroke="#000000" stroke-width="30px" stroke-miterlimit="8" fill="#000000"/>
<!-- Line -->
<defs>
<clipPath id="cp5">
	<path clip-rule="evenodd" d="M 2644,1587 H 12093 V 5505 H 2644 z
		M 9385,5130 9385,5310 9843,5253 9843,5187z"/>
</clipPath>
</defs>
<polyline points=" 9135,5220 9810,5220" clip-path="url(#cp5)"
	stroke="#000000" stroke-width="60px"/>
<!-- Forward arrow to point 9810,5220 -->
<polygon points=" 9385,5310 9745,5220 9385,5130 9385,5310"
	stroke="#000000" stroke-width="30px" stroke-miterlimit="8" fill="#000000"/>
<!-- Line -->
<rect x="9810" y="1620" width="450" height="450"
	stroke="#000000" stroke-width="30px"/>
<!-- Line -->
<rect x="10710" y="1620" width="450" height="450"
	stroke="#000000" stroke-width="30px"/>
<!-- Line -->
<rect x="10260" y="2295" width="450" height="450"
	stroke="#000000" stroke-width="30px"/>
<!-- Line -->
<rect x="9810" y="2295" width="450" height="450"
	stroke="#000000" stroke-width="30px"/>
<!-- Line -->
<rect x="10260" y="2970" width="450" height="450"
	stroke="#000000" stroke-width="30px"/>
<!-- Line -->
<rect x="10710" y="2970" width="450" height="450"
	stroke="#000000" stroke-width="30px"/>
<!-- Line -->
<rect x="11610" y="2970" width="450" height="450"
	stroke="#000000" stroke-width="30px"/>
<!-- Line -->
<rect x="9810" y="3645" width="450" height="450"
	stroke="#000000" stroke-width="30px"/>
<!-- Line -->
<rect x="9810" y="4995" width="450" height="450"
	stroke="#000000" stroke-width="30px"/>
<!-- Line -->
<rect x="9810" y="4320" width="450" height="450"
	stroke="#000000" stroke-width="30px"/>
<!-- Line -->
<rect x="9810" y="2970" width="450" height="450"
	stroke="#000000" stroke-width="30px"/>
<!-- Line -->
<rect x="10260" y="1620" width="450" height="450"
	stroke="#000000" stroke-width="30px"/>
<!-- Line -->
<rect x="11160" y="2970" width="450" height="450"
	stroke="#000000" stroke-width="30px"/>
<!-- Line -->
<rect x="10260" y="3645" width="450" height="450"
	stroke="#000000" stroke-width="30px"/>
</g>
</svg>
